
<svg viewBox="310 60 405 440" xmlns="http://www.w3.org/2000/svg">
  <defs>
    <linearGradient id="goldMetallic" x1="0%" y1="0%" x2="100%" y2="100%">
      <stop offset="0%" stop-color="#4b3412" />
      <stop offset="15%" stop-color="#b8860b" />
      <stop offset="40%" stop-color="#fbf5b7" />
      <stop offset="50%" stop-color="#ffffff" />
      <stop offset="60%" stop-color="#d4af37" />
      <stop offset="85%" stop-color="#8b6508" />
      <stop offset="100%" stop-color="#4b3412" />
    </linearGradient>
    <filter id="goldGlow" x="-20%" y="-20%" width="140%" height="140%">
      <feGaussianBlur stdDeviation="5" result="blur" />
      <feComposite in="SourceGraphic" in2="blur" operator="over" />
    </filter>
  </defs>
  <path 
    fill="url(#goldMetallic)" 
    filter="url(#goldGlow)"
    fill-rule="evenodd"
    d="M 498.431 76.294 C 491.319 83.056, 478.949 94.644, 470.942 102.044 C 462.935 109.445, 447.635 123.595, 436.942 133.488 C 426.249 143.381, 409.921 158.906, 400.659 167.988 C 391.396 177.070, 379.094 189.748, 373.321 196.163 C 367.549 202.577, 359.448 212.027, 355.321 217.163 C 351.194 222.298, 344.303 231.782, 340.008 238.237 C 335.713 244.693, 329.905 254.440, 327.102 259.897 C 324.298 265.355, 320.449 274.473, 318.548 280.160 C 316.647 285.847, 314.396 294.496, 313.546 299.381 C 312.696 304.266, 312.001 311.691, 312.001 315.881 C 312.002 320.071, 312.675 327.325, 313.497 332 C 314.319 336.675, 315.929 343.425, 317.075 347 C 318.221 350.575, 320.871 356.935, 322.964 361.134 C 325.056 365.333, 328.711 371.633, 331.086 375.134 C 333.461 378.635, 339.250 385.369, 343.952 390.097 C 348.653 394.826, 355.875 400.950, 360 403.708 C 364.125 406.465, 370.208 410.087, 373.517 411.757 C 376.826 413.427, 383.351 415.954, 388.017 417.373 C 392.683 418.792, 399.650 420.404, 403.500 420.956 C 407.350 421.509, 414.100 421.966, 418.500 421.973 C 422.900 421.979, 429.425 421.520, 433 420.953 C 436.575 420.385, 443.208 418.800, 447.740 417.431 C 452.272 416.062, 459.247 413.422, 463.240 411.565 C 467.233 409.708, 473.747 405.895, 477.715 403.093 C 481.683 400.290, 487.815 395.298, 491.342 391.999 C 494.869 388.699, 497.955 386, 498.199 386 C 498.443 386, 498.302 388.813, 497.886 392.250 C 497.470 395.688, 496.398 402.029, 495.505 406.341 C 494.612 410.654, 492.608 418.079, 491.051 422.841 C 489.494 427.604, 486.396 435.325, 484.165 440 C 481.934 444.675, 477.021 453.225, 473.247 459 C 469.247 465.120, 462.655 473.296, 457.442 478.600 C 452.524 483.606, 446.507 489.343, 444.070 491.350 L 439.640 495 512.410 495 L 585.180 495 579.840 490.800 C 576.903 488.490, 571.125 483.175, 567 478.990 C 562.875 474.804, 556.885 467.717, 553.688 463.242 C 550.492 458.766, 545.453 450.463, 542.490 444.790 C 539.528 439.118, 535.453 429.543, 533.436 423.514 C 531.418 417.484, 528.919 407.850, 527.884 402.106 C 526.848 396.361, 526 390.290, 526 388.615 C 526 385.568, 526 385.568, 531.250 390.694 C 534.138 393.513, 540.100 398.384, 544.500 401.519 C 548.900 404.653, 555.425 408.685, 559 410.478 C 562.575 412.271, 569.100 414.974, 573.500 416.485 C 577.900 417.995, 585.325 419.852, 590 420.612 C 594.675 421.371, 602.100 421.991, 606.500 421.989 C 610.900 421.987, 617.425 421.517, 621 420.945 C 624.575 420.373, 630.650 418.980, 634.500 417.851 C 638.350 416.721, 644.662 414.343, 648.527 412.566 C 652.392 410.789, 658.917 407.126, 663.027 404.424 C 667.137 401.723, 673.993 396.182, 678.263 392.112 C 682.532 388.041, 688.228 381.738, 690.921 378.105 C 693.613 374.472, 697.612 368.125, 699.807 364 C 702.002 359.875, 705.002 352.954, 706.472 348.621 C 707.943 344.287, 709.788 337.385, 710.573 333.283 C 711.358 329.181, 712 321.476, 712 316.162 C 712 310.848, 711.314 302.919, 710.477 298.543 C 709.640 294.166, 708.318 288.444, 707.541 285.826 C 706.764 283.209, 704.460 276.890, 702.423 271.784 C 700.385 266.678, 696.461 258.450, 693.703 253.500 C 690.946 248.550, 685.798 240.317, 682.265 235.205 C 678.731 230.093, 672.684 221.993, 668.827 217.205 C 664.970 212.417, 656.718 202.875, 650.488 196 C 644.259 189.125, 631.588 176.039, 622.331 166.921 C 613.074 157.802, 589.300 135.340, 569.500 117.006 C 549.700 98.672, 528.853 79.245, 523.172 73.836 C 517.492 68.426, 512.511 64, 512.103 64 C 511.696 64, 505.543 69.532, 498.431 76.294" 
  />
</svg>
